<svg width="24" height="24" viewBox="0 0 24 24" fill="none" xmlns="http://www.w3.org/2000/svg">
<path d="M17.062 3.25H6.937C6.71538 3.25 6.49592 3.29367 6.29118 3.37851C6.08644 3.46335 5.90042 3.58771 5.74376 3.74446C5.58709 3.90122 5.46285 4.08731 5.37813 4.29211C5.29341 4.4969 5.24987 4.71638 5.25 4.938V18.25L12 14.313L18.75 18.25V4.938C18.7501 4.71629 18.7066 4.49673 18.6218 4.29188C18.537 4.08702 18.4127 3.90088 18.2559 3.74411C18.0991 3.58734 17.913 3.46301 17.7081 3.37822C17.5033 3.29344 17.2837 3.24987 17.062 3.25ZM17.062 15.312L12 12.359L6.937 15.312V5.148C6.937 5.09204 6.95923 5.03837 6.9988 4.9988C7.03837 4.95923 7.09204 4.937 7.148 4.937H16.848C16.904 4.937 16.9576 4.95923 16.9972 4.9988C17.0368 5.03837 17.059 5.09204 17.059 5.148L17.062 15.312Z" fill="#CBCBCB"/>
</svg>
