<svg width="16" height="16" viewBox="0 0 16 16" fill="none" xmlns="http://www.w3.org/2000/svg">
<path d="M0.702064 15.2878C0.999884 15.5735 1.39561 15.7345 1.80829 15.7381C2.22097 15.7416 2.6194 15.5873 2.92206 15.3068L8.00206 10.2388L13.0681 15.3068C13.3685 15.5918 13.7684 15.7482 14.1825 15.7428C14.5966 15.7374 14.9922 15.5705 15.2851 15.2778C15.5741 14.9823 15.7376 14.5866 15.7413 14.1733C15.745 13.76 15.5887 13.3613 15.3051 13.0608L10.2461 7.99276L15.3021 2.93376C15.5857 2.63318 15.742 2.2345 15.7383 1.82124C15.7346 1.40797 15.5711 1.01218 15.2821 0.716761C14.9878 0.42652 14.5927 0.261402 14.1794 0.255996C13.7661 0.250591 13.3668 0.405316 13.0651 0.687761L8.00206 5.75276L2.92206 0.687761C2.61943 0.408217 2.22157 0.254643 1.8096 0.25836C1.39763 0.262076 1.0026 0.422803 0.705064 0.707761C0.422302 1.00643 0.263064 1.40106 0.259354 1.81233C0.255643 2.2236 0.407736 2.62104 0.685064 2.92476L5.76306 7.99276L0.685064 13.0708C0.407333 13.3741 0.254707 13.7713 0.25786 14.1826C0.261014 14.5939 0.419713 14.9887 0.702064 15.2878Z" fill="black"/>
</svg>
