<svg width="60" height="60" viewBox="0 0 60 60" fill="none" xmlns="http://www.w3.org/2000/svg">
<rect width="60" height="60" rx="20" fill="#4F55EA"/>
<path d="M29.9963 33.8825C31.2983 33.8825 32.547 33.3653 33.4677 32.4446C34.3883 31.5239 34.9056 30.2752 34.9056 28.9732V22.9093C34.9056 21.6073 34.3883 20.3586 33.4677 19.4379C32.547 18.5172 31.2983 18 29.9963 18C28.6951 18.0014 27.4478 18.5193 26.5283 19.4398C25.6087 20.3603 25.0922 21.6082 25.0922 22.9093V28.9742C25.0925 30.2752 25.6091 31.5228 26.5286 32.4431C27.4481 33.3634 28.6953 33.8811 29.9963 33.8825ZM38.1777 26.7593H37.3597C37.1427 26.7593 36.9347 26.8455 36.7812 26.9989C36.6278 27.1523 36.5416 27.3604 36.5416 27.5773V28.9732C36.5407 29.8873 36.3486 30.7912 35.9775 31.6266C35.6064 32.4621 35.0646 33.2106 34.387 33.8242C33.7093 34.4377 32.9108 34.9027 32.0427 35.1893C31.1746 35.4758 30.2562 35.5775 29.3465 35.4879C27.6989 35.2781 26.1867 34.4677 25.0996 33.2121C24.0125 31.9564 23.4269 30.3438 23.4551 28.6832V27.5773C23.4551 27.3604 23.3689 27.1523 23.2155 26.9989C23.0621 26.8455 22.854 26.7593 22.6371 26.7593H21.819C21.6021 26.7593 21.394 26.8455 21.2406 26.9989C21.0872 27.1523 21.001 27.3604 21.001 27.5773V28.5721C20.9689 30.7949 21.7357 32.9555 23.1621 34.6607C24.5884 36.3659 26.5794 37.5025 28.7729 37.8637V39.6098H25.9103C25.6933 39.6098 25.4852 39.696 25.3318 39.8494C25.1784 40.0029 25.0922 40.2109 25.0922 40.4279V41.2459C25.0922 41.4629 25.1784 41.671 25.3318 41.8244C25.4852 41.9778 25.6933 42.064 25.9103 42.064H34.0918C34.3087 42.064 34.5168 41.9778 34.6702 41.8244C34.8236 41.671 34.9098 41.4629 34.9098 41.2459V40.4279C34.9098 40.2109 34.8236 40.0029 34.6702 39.8494C34.5168 39.696 34.3087 39.6098 34.0918 39.6098H31.2281V37.8828C33.3802 37.5846 35.352 36.5187 36.7803 34.8814C38.2085 33.2442 38.9968 31.1459 39 28.9732V27.5773C39 27.3604 38.9138 27.1523 38.7604 26.9989C38.607 26.8455 38.3989 26.7593 38.182 26.7593H38.1777Z" fill="white"/>
</svg>
