<svg width="15" height="15" viewBox="0 0 15 15" fill="none" xmlns="http://www.w3.org/2000/svg">
<path d="M7.98 0.259939L4.68 3.55994H0.891002C0.773873 3.55981 0.65787 3.5828 0.549644 3.62759C0.441418 3.67238 0.343098 3.7381 0.260322 3.82097C0.177546 3.90384 0.111941 4.00223 0.0672697 4.1105C0.0225984 4.21878 -0.000261037 4.33481 2.24866e-06 4.45194V9.79594C2.24866e-06 10.0322 0.0938752 10.2589 0.26097 10.426C0.428065 10.5931 0.654694 10.6869 0.891002 10.6869H4.678L7.978 13.9869C8.1025 14.1118 8.26125 14.1969 8.43415 14.2316C8.60706 14.2662 8.78635 14.2487 8.94931 14.1813C9.11228 14.114 9.25159 13.9998 9.34962 13.8532C9.44765 13.7066 9.49999 13.5343 9.5 13.3579V0.889939C9.49979 0.71393 9.44746 0.541927 9.3496 0.395628C9.25175 0.24933 9.11275 0.135291 8.95016 0.0678992C8.78756 0.000507586 8.60865 -0.0172175 8.43599 0.0169597C8.26333 0.0511369 8.10466 0.135686 7.98 0.259939ZM12.552 4.27094C12.3448 4.15787 12.1013 4.13132 11.8747 4.19708C11.648 4.26283 11.4565 4.41556 11.342 4.62194C11.2281 4.82895 11.2011 5.07271 11.267 5.29962C11.3328 5.52653 11.486 5.718 11.693 5.83194C11.9263 5.958 12.1215 6.1444 12.2582 6.37167C12.3949 6.59894 12.468 6.85874 12.47 7.12394C12.4673 7.38858 12.3937 7.64766 12.2569 7.87419C12.1201 8.10072 11.925 8.28642 11.692 8.41194C11.485 8.52587 11.3318 8.71735 11.266 8.94426C11.2001 9.17117 11.2271 9.41493 11.341 9.62194C11.4551 9.82872 11.6466 9.98179 11.8734 10.0476C12.1003 10.1134 12.3439 10.0865 12.551 9.97294C13.0637 9.69303 13.492 9.28065 13.791 8.77882C14.09 8.27698 14.2489 7.7041 14.251 7.11994C14.2483 6.53644 14.0891 5.96434 13.7901 5.46326C13.4911 4.96218 13.0632 4.55044 12.551 4.27094H12.552Z" fill="#4F55EA"/>
</svg>
